<svg xmlns="http://www.w3.org/2000/svg" width="172" height="32" viewBox="0 0 172 32">
  <metadata><?xpacket begin="﻿" id="W5M0MpCehiHzreSzNTczkc9d"?>
<x:xmpmeta xmlns:x="adobe:ns:meta/" x:xmptk="Adobe XMP Core 5.6-c142 79.160924, 2017/07/13-01:06:39        ">
   <rdf:RDF xmlns:rdf="http://www.w3.org/1999/02/22-rdf-syntax-ns#">
      <rdf:Description rdf:about=""/>
   </rdf:RDF>
</x:xmpmeta>
                                                                                                    
                                                                                                    
                                                                                                    
                                                                                                    
                                                                                                    
                                                                                                    
                                                                                                    
                                                                                                    
                                                                                                    
                                                                                                    
                                                                                                    
                                                                                                    
                                                                                                    
                                                                                                    
                                                                                                    
                                                                                                    
                                                                                                    
                                                                                                    
                                                                                                    
                                                                                                    
                           
<?xpacket end="w"?></metadata>
<defs>
    <style>
      .cls-1 {
        fill: #fff;
        fill-rule: evenodd;
      }
    </style>
  </defs>
  <path id="Shape_6_copy" data-name="Shape 6 copy" class="cls-1" d="M616.432,7346.96a7.391,7.391,0,0,1,1.731,4.74v4.5a1.8,1.8,0,0,0-.865,1.32,2.621,2.621,0,0,0,.865,1.57v6.28s-0.6,4.29-2.332,6.52c1.922-1.06,5.407-3.35,5.407-3.35a10.759,10.759,0,0,1-1.343-4.26c0-1.88.035-5.19,0.035-5.19a2.864,2.864,0,0,0,.989-1.53,2.493,2.493,0,0,0-1.094-1.43s-0.027-2.75-.027-4.34a7.711,7.711,0,0,1,1.97-4.83c-3.6-.03-5.336,0-5.336,0m-18.83,7.21-11.039,10.89a7.854,7.854,0,0,0,5.572,2.31,7.758,7.758,0,0,0,7.807-7.71,7.6,7.6,0,0,0-2.34-5.49m-9.807,4.81a7.48,7.48,0,0,1-2.253-5.36,7.713,7.713,0,0,1,13.116-5.38l-0.22.22a7.4,7.4,0,0,0-12.584,5.16,7.168,7.168,0,0,0,2.161,5.14Zm0.489-.57a6.748,6.748,0,0,1-1.991-4.79,6.961,6.961,0,0,1,11.833-4.86l-0.221.22a6.648,6.648,0,0,0-11.3,4.64,6.471,6.471,0,0,0,1.9,4.58Zm0.54-.51a6.022,6.022,0,0,1-1.783-4.28,6.206,6.206,0,0,1,10.525-4.36l-0.219.22a5.893,5.893,0,0,0-9.992,4.14,5.7,5.7,0,0,0,1.691,4.06Zm0.48-.57a5.327,5.327,0,0,1-1.512-3.71,5.457,5.457,0,0,1,9.235-3.85l-0.218.22a5.146,5.146,0,0,0-8.7,3.63,4.981,4.981,0,0,0,1.426,3.49Zm0.55-.5a4.585,4.585,0,0,1-1.312-3.21,4.661,4.661,0,0,1,4.691-4.63,4.711,4.711,0,0,1,3.283,1.32l-0.219.22a4.387,4.387,0,0,0-7.443,3.09,4.26,4.26,0,0,0,1.225,2.99Zm0.529-.53a3.844,3.844,0,0,1-1.092-2.68,3.917,3.917,0,0,1,3.942-3.89,3.96,3.96,0,0,1,2.753,1.1l-0.219.22a3.666,3.666,0,0,0-2.534-1.02,3.613,3.613,0,0,0-3.629,3.59,3.542,3.542,0,0,0,1,2.47Zm0.549-.5a3.123,3.123,0,0,1-.891-2.18,3.2,3.2,0,0,1,5.414-2.26l-0.217.22a2.882,2.882,0,0,0-4.885,2.04,2.8,2.8,0,0,0,.8,1.96Zm0.53-.53a2.365,2.365,0,0,1-.671-1.65,2.45,2.45,0,0,1,4.112-1.76l-0.213.22a2.177,2.177,0,0,0-1.457-.57,2.124,2.124,0,0,0-2.13,2.11,2.056,2.056,0,0,0,.585,1.44Zm0.508-.54a1.659,1.659,0,0,1-.43-1.11,1.693,1.693,0,0,1,1.693-1.68,1.717,1.717,0,0,1,1.16.46l-0.213.22a1.432,1.432,0,0,0-.947-0.37,1.38,1.38,0,0,0-1.381,1.37,1.343,1.343,0,0,0,.351.9Zm9.786,12.27-0.14-5.78a0.488,0.488,0,0,1,.464-0.45,0.607,0.607,0,0,1,.6.59,5.148,5.148,0,0,0,5.293,4.72c4.781,0,4.409-3.41,4.409-4.31s-0.824-2.76-4.27-3.57c-3.791-.89-5.432-3.62-5.432-5.63a5.6,5.6,0,0,1,2.136-4.81,6.114,6.114,0,0,1,3.806-1.24,6.768,6.768,0,0,1,2.6.55,0.894,0.894,0,0,0,1.208-.46c0.107-.42.685-0.18,0.685,0.29s-0.011,4.74-.011,4.74a0.41,0.41,0,0,1-.442.47,0.455,0.455,0,0,1-.487-0.53,3.232,3.232,0,0,0-.442-2.52,4.521,4.521,0,0,0-3-1.65,4.414,4.414,0,0,0-4.225,4.47c0,3.5,3.239,3.41,5.374,3.89a5.829,5.829,0,0,1,4.883,6.02c0,1.01-.31,5.82-6.276,5.82-2.375,0-4.732-2.19-5.2-2.19s-0.538,1.14-.534,1.65a0.5,0.5,0,1,1-1-.07m-32.573-16.94h-3.491v-3.45h3.491v3.45Zm0,13.77h-3.491v-3.44h3.491v3.44Zm0-10.33h-3.491v-3.44h3.491v3.44Zm0,6.89h-3.491v-3.45h3.491v3.45Zm3.491,6.89h-3.491v-3.45h3.491v3.45Zm6.982,0h-3.491v-3.45h3.491v3.45Zm3.491,0h-3.491v-3.45h3.491v3.45Zm-6.981,0h-3.492v-3.45h3.492v3.45Zm-6.983-10.33h-3.491v-3.45h3.491v3.45Zm13.964-6.89h-3.491v-3.45h3.491v3.45Zm0,13.77h-3.491v-3.44h3.491v3.44Zm0-10.33h-3.491v-3.44h3.491v3.44Zm0,6.89h-3.491v-3.45h3.491v3.45Zm0-3.44h-3.491v-3.45h3.491v3.45Zm-32.854-12.87c0.105,0.19.105,0.17,0.253,0.4a2.409,2.409,0,0,0,.3.75,5.728,5.728,0,0,1,.105,1.2,16.061,16.061,0,0,1-.253,2.65,5.382,5.382,0,0,0-.19.98l-0.084.1a1.237,1.237,0,0,1,.063.25,1.407,1.407,0,0,0-.338.52l0.085,0.13-0.169.35a0.1,0.1,0,0,0,.126.09,4.022,4.022,0,0,0-.4.41,10.166,10.166,0,0,1-.676,1.63,1.88,1.88,0,0,0,.3-0.36,4.817,4.817,0,0,0,.7-1.04c0.064-.16.591-0.66,0.591-0.75a2.009,2.009,0,0,1,.781-0.83,6.909,6.909,0,0,0,.465-0.56,5.193,5.193,0,0,0,.845-0.92,0.7,0.7,0,0,0-.043-0.12,8.6,8.6,0,0,0,1.436-1.28c0.064-.18.19-0.1,0.338-0.18a0.959,0.959,0,0,1,.464-0.46,3.166,3.166,0,0,0,.719-0.63,8.616,8.616,0,0,1,2.006-1.23c0.063,0,.106.03,0.169,0.03a2.165,2.165,0,0,1,.8-0.44c0.063,0,.083.02,0.147,0.02a1.728,1.728,0,0,1,.212-0.21l0.21,0.02c0-.02,1.225-0.27,1.309-0.27s0.148,0.02.233,0.02c0.063,0,.147-0.04.232-0.04a3.885,3.885,0,0,1,1.964.62c0.106,0.09.084,0.23,0.19,0.32,0.063,0.06.3,0.02,0.3,0.16a0.543,0.543,0,0,0-.064.15c0.021,0.02.106,0.02,0.127,0.04,0,0.06-.021.11-0.021,0.17a1.029,1.029,0,0,1,.274.5c0,0.06-.021.06-0.021,0.12l0.106,0.02a4.966,4.966,0,0,1-.4,2.07c-0.127.16-.444,0.93-0.486,0.98-0.064.06-.106-0.02-0.106,0.08a10.791,10.791,0,0,1-.823,1.23,3.479,3.479,0,0,1-.254.58,1.142,1.142,0,0,1-.232.17c-0.168.69-.486,0.52-0.591,1.06a9.722,9.722,0,0,0-1.267,1.23H559.69a1.533,1.533,0,0,1-.592.42,6.69,6.69,0,0,1-1.181.91,1.417,1.417,0,0,0-.444.77l0.718,0.03c0.063,0.37,2.174-.03,2.174,1.31a1.351,1.351,0,0,1-.168.75,1.051,1.051,0,0,1-.19.06,1.664,1.664,0,0,0-.106.35,2.931,2.931,0,0,0-.782,1.3,2.465,2.465,0,0,0-.527.68,1.391,1.391,0,0,0-.274.32l-0.845,1.1a0.16,0.16,0,0,1-.085.08c-0.211.25,0.106,0.4-.443,0.63a0.2,0.2,0,0,0,.021.08,13.271,13.271,0,0,1-.972,1.25l-0.126.23c-0.191.33-.74,0.98-1.669,2.63a1.871,1.871,0,0,1-.126.41c-0.064.07-.127,0.02-0.191,0.09a9.726,9.726,0,0,0-.908,2.08,12.6,12.6,0,0,0-.718,2.67,0.353,0.353,0,0,0,.17.37,3.306,3.306,0,0,0-.148.36,1.429,1.429,0,0,0,.718,1.39,0.723,0.723,0,0,0,.612.42,1.621,1.621,0,0,0,.38.12h0.17a7.7,7.7,0,0,0,2.808-.75,0.473,0.473,0,0,1,.275-0.16c0.02,0,.084.02,0.167,0.04l1.458-.88c0.085-.06.212-0.02,0.317-0.08a1.074,1.074,0,0,0,.275-0.33c0.527-.06,1.267-0.94,1.562-0.94a9.532,9.532,0,0,0,1.267-.87,8.012,8.012,0,0,0,2.28-2.07,3.035,3.035,0,0,0,.422-0.52c0.127-.19.212,0.02,0.275-0.46,0-.27.486-0.39,0.486-0.62a4.65,4.65,0,0,0,.253-0.71,0.666,0.666,0,0,0-.232-0.6,4.391,4.391,0,0,1-.76.35c-0.064,0-.042-0.02-0.106-0.02a1.046,1.046,0,0,1,.76-0.71,0.673,0.673,0,0,1,.571.33c0,0.09-.064.15-0.064,0.23a0.1,0.1,0,0,0,.021.07H566.3a2.6,2.6,0,0,1-.063.7c-0.106.38-.761,1.05-0.761,1.3a2.426,2.426,0,0,0-.211.29v0.04a1.054,1.054,0,0,0-.317.35,3.893,3.893,0,0,0-.612.67,1.789,1.789,0,0,1-.4.33c-0.063.07-.021,0.19-0.084,0.27-0.275.25-.634,0.4-0.909,0.63a2.4,2.4,0,0,1-.317.33,2.536,2.536,0,0,0-.252.09,17.666,17.666,0,0,1-1.1.81c-0.105.06-.02,0.21-0.253,0.21-0.253,0-.148.12-0.232,0.21a0.6,0.6,0,0,0-.295.04c-0.064.06-.043,0.1-0.106,0.16-0.19.15-.866,0.48-1.141,0.63a3.028,3.028,0,0,1-1.076.64,0.7,0.7,0,0,1-.106.19,1.36,1.36,0,0,0-.7.29l-0.147-.02a6.093,6.093,0,0,1-1.436.52,2.228,2.228,0,0,1-.232.15c-0.064,0-.085-0.02-0.147-0.02a5.843,5.843,0,0,1-.993.27,1.845,1.845,0,0,1-1.6-.54c-0.232-.19-0.74-0.48-0.74-0.5l0.043-.13a2.462,2.462,0,0,0-.739-0.89,0.262,0.262,0,0,0,.063-0.19,0.555,0.555,0,0,0-.126-0.33c0-.07.02-0.13,0.02-0.19-0.062,0-.084-0.02-0.084-0.04a0.247,0.247,0,0,1,.084-0.19c0-.17-0.1-0.33-0.1-0.5a13.9,13.9,0,0,1,.337-2.06l-0.063-.11a1.844,1.844,0,0,0,.38-1.16l0.063-.11a2.138,2.138,0,0,0,.444-1.04c0-.08-0.022-0.15-0.022-0.23a1.9,1.9,0,0,0,.317-0.25v-0.17l0.085,0.03v-0.09l0.21-.44a3.951,3.951,0,0,1,.36-0.6,1.024,1.024,0,0,0,.3-0.44c0-.04.908-1.48,0.972-1.54a2.694,2.694,0,0,0,.316-0.25c0.107-.44.36-0.54,0.422-0.88a1.516,1.516,0,0,0,.276-0.24c0.062-.07.527-0.78,0.634-0.92,0.083-.11.251-0.15,0.337-0.25,0.253-.31.633-0.92,1.119-1.44,0.317-.4.591-0.83,0.929-1.19a0.623,0.623,0,0,0,.317-0.31v-0.12a0.973,0.973,0,0,0,.507-0.78c0-.41-0.465-0.29-0.76-0.41a0.167,0.167,0,0,1-.106.02,0.362,0.362,0,0,1-.19-0.11c-0.084,0-.169.05-0.254,0.05-0.19,0-.38-0.02-0.57-0.02a2.1,2.1,0,0,0-.421.12c-0.064,0-.149-0.04-0.212-0.04a1.4,1.4,0,0,0-.317.19h-0.423c-0.78,0-.422.6-0.95,0.6a1,1,0,0,1-1.162-.94c0-1.1,1.816-1.5,1.816-1.77v-0.08a0.188,0.188,0,0,1,.127-0.04c0.571-.56,1.162-0.79,1.732-1.36,0.233-.23.55-0.39,0.781-0.64a5.81,5.81,0,0,0,.909-1.11,1.069,1.069,0,0,1,.232-0.31c0.063-.06.232-0.02,0.232-0.13a0.093,0.093,0,0,1-.021-0.08c0-.25.592-0.52,0.592-0.75a2.414,2.414,0,0,1,.569-0.71,5.532,5.532,0,0,0,1.31-2.14,0.229,0.229,0,0,1,.126-0.19c0-.08-0.084-0.15-0.084-0.25a1.908,1.908,0,0,0,.274-1,1,1,0,0,0-.612-0.85l-0.211-.03-0.085-.06c-0.063,0-.126.04-0.211,0.04a0.948,0.948,0,0,0-.612-0.27,1.04,1.04,0,0,0-.908.25c-0.275.07-.718,0.02-0.951,0.11a2.578,2.578,0,0,1-.7.29,0.7,0.7,0,0,0-.359.21c-0.107.06-.211,0.02-0.316,0.08a1.776,1.776,0,0,1-.74.33V7346c0,0.14-.253.12-0.338,0.18a2.061,2.061,0,0,1-.824.78c-0.02,0-.084-0.03-0.169-0.05a3.42,3.42,0,0,1-1.077.82,2.226,2.226,0,0,0-.358.56,5.363,5.363,0,0,1-.529.35l-1.118,1.11a3,3,0,0,0-.128.29c-0.062.06-.168,0.1-0.232,0.16-0.084.11-.042,0.26-0.105,0.32a1.449,1.449,0,0,0-.824.94,1.167,1.167,0,0,0-.612.58l-0.021.12c-0.063.44-.633,0.42-0.739,0.96a0.8,0.8,0,0,1-.57.67c-0.212.04-.021,0.44-0.233,0.48-0.548.17-.527,0.89-0.7,1.31a7.346,7.346,0,0,0-.718,1.67l-0.232.5a5.479,5.479,0,0,1-.423.73,0.815,0.815,0,0,0-.3.48,5.276,5.276,0,0,1-.591,1.33,0.83,0.83,0,0,0-.423.56c0,0.15-.486.73-0.486,0.9-0.084.08-.168,0.27-0.316,0.41-0.064.07-.507,1.11-0.612,1.28a6.631,6.631,0,0,0-.634.85c-0.19.19-.655,1.27-1.035,1.75-0.168.23-.422,0.33-0.612,0.56-0.064.07-.042,0.25-0.126,0.36a0.829,0.829,0,0,1-.782.44,0.687,0.687,0,0,1-.656-0.48,3.242,3.242,0,0,1,.234-0.8l-0.085-.08a2.407,2.407,0,0,0,.337-0.52,16.924,16.924,0,0,1,1.142-2.08,11.559,11.559,0,0,1,.738-1.52,2.675,2.675,0,0,0,.465-0.94v-0.13c0.443-.21,1.288-2.37,1.668-3.02a1.456,1.456,0,0,1,.422-0.71,2.416,2.416,0,0,1,.275-0.71l0.021-.02a0.039,0.039,0,0,1,.021-0.04c0.486-.85.844-1.73,1.246-2.62a2.041,2.041,0,0,0,.359-0.57,1.5,1.5,0,0,1,.127-0.54c0.021-.06.063,0.04,0.084-0.1,0.042-.21.823-1.75,0.823-2.02v-0.07a1.7,1.7,0,0,0,.254-0.47v-0.25a0.863,0.863,0,0,1,.02-0.25c0.36,0,.719-2.94.719-3.4a10.4,10.4,0,0,0-.254-1.79,3.057,3.057,0,0,0-1.076-1.27m-3.5.58c-0.022,0-.613.67-0.634,0.69a3.906,3.906,0,0,0-1.056,1.44,2.846,2.846,0,0,0-.865,1.27,7.678,7.678,0,0,0-.465,1.37,2.149,2.149,0,0,1-.317.54,1.684,1.684,0,0,1,.042.25,3.873,3.873,0,0,1-.316.75,12.182,12.182,0,0,1-.318,1.84c0,0.06.043,0.12,0.043,0.2s-0.127.17-.127,0.26,0.064,0.18.064,0.29a0.856,0.856,0,0,1-.086.14,0.191,0.191,0,0,0,.064.13,0.765,0.765,0,0,1-.105.25,1.4,1.4,0,0,1,.063.23c0,0.06-.084.12-0.084,0.18,0,0.11.043,0.19,0.043,0.3,0,0.23.041,1.08,0.358,1.08,0.211,0,.253-0.52.633-0.52a0.2,0.2,0,0,1,.106.23c0,0.17-.126.33-0.126,0.5,0,0.14.063,0.29,0.063,0.44l-0.233-.11a0.318,0.318,0,0,1-.3.33,0.714,0.714,0,0,1-.232-0.29,0.147,0.147,0,0,0-.083.07,2.425,2.425,0,0,1-.212-0.36c0-.02-0.021-0.04-0.021-0.06l-0.085-.13a1.223,1.223,0,0,1-.169-0.43c0-.07.042-0.13,0.042-0.19,0-.35-0.19-0.79-0.19-1.21a0.7,0.7,0,0,1,.127-0.25c0-.15-0.021-0.23-0.021-0.37a17.1,17.1,0,0,1,.929-4.09l0.085-.08,0.042-.42,0.021-.08a1.2,1.2,0,0,0,.191-0.38h0.105c0.1-.23.148-0.48,0.253-0.71l-0.022-.12,0.044-.06c0.253,0,.19-0.57.632-1a0.439,0.439,0,0,1,.17-0.06c0.021,0,.274-0.55.338-0.63,0.148-.19.359-0.29,0.507-0.48a1.384,1.384,0,0,1,.211-0.44m102.845,20.82h2.526v2.59h-2.526v-2.59Zm7.836-.77a3.789,3.789,0,0,0,3.61,1.86c1.469,0,2.783-.76,2.783-2.04s-0.722-1.8-2.268-1.93l-1.521-.13c-2.706-.23-3.893-1.6-3.893-3.63,0-2.42,2.217-3.69,4.769-3.69a4.988,4.988,0,0,1,4.718,2.49l-1.728.94a3.146,3.146,0,0,0-3.067-1.7c-1.546,0-2.526.66-2.526,1.91,0,0.99.413,1.67,1.959,1.8l1.521,0.13c2.474,0.23,4.2,1.45,4.2,3.74,0,2.41-2.4,3.84-5.053,3.84-2.81,0-4.434-1.15-5.258-2.67Zm10.156-9.36h2.011v-3.81h2.166v3.81h2.732v1.73h-2.732v7.61c0,1.04.386,1.85,1.418,1.85h1.314v1.73h-1.882c-1.984,0-3.016-1.22-3.016-3.36v-7.83h-2.011v-1.73ZM684.1,7367.3h-2.166v-1.4h-0.1a4.542,4.542,0,0,1-3.531,1.6c-2.578,0-4.511-1.32-4.511-4.78v-8.14h2.165v7.89c0,2.54,1.315,3.3,2.861,3.3a3.217,3.217,0,0,0,3.119-3.3v-7.89H684.1v12.72Zm14.023,0h-2.166v-1.4h-0.1a4.35,4.35,0,0,1-3.532,1.6,4.435,4.435,0,0,1-4.486-2.95,15.1,15.1,0,0,1,0-7.22,4.81,4.81,0,0,1,8.018-1.35h0.1v-6.48h2.166v17.8Zm-2.166-7.89a3.208,3.208,0,0,0-3.195-3.3,2.778,2.778,0,0,0-2.785,1.68,13.961,13.961,0,0,0,0,6.3,2.765,2.765,0,0,0,2.785,1.68,3.2,3.2,0,0,0,3.195-3.3v-3.06Zm4.486-4.83h2.319l3.533,9.9,3.428-9.9h2.268l-5,13.76c-0.979,2.7-2.011,4.05-4.459,4.05h-1.315v-1.73h0.877c1.778,0,2.577-1.27,3.145-3.28Zm-71.841-8.07-5.745,20.69,5.884,0.03,1.4-5.23,2.405,0.01-0.053,5.15,6.641,0.02,0.082-20.63Zm4,10.19-1.038-.01,1.079-4.03Z" transform="translate(-540 -7343)"/>
</svg>
