<svg width="101" height="34" viewBox="0 0 101 34" fill="none" xmlns="http://www.w3.org/2000/svg">
<path d="M1.23583 52.6278C1.23583 52.6278 4.80579 48.7267 4.80579 42.6172C4.80579 36.5078 4.80579 33.1223 4.80579 33.1223C4.80579 33.1223 3.02081 32.0181 3.02081 30.3254C3.02081 28.6327 4.80579 27.0129 4.80579 27.0129V13.7637C4.80579 13.7637 3.57 4.71044 -4.46971e-05 -1.24204e-05C3.95904 2.22919 11.145 7.06568 11.145 7.06568C11.145 7.06568 8.37585 12.071 8.37585 16.0461C8.37585 20.02 8.44458 27.0129 8.44458 27.0129C8.44458 27.0129 10.4813 28.7796 10.4813 30.2514C10.4813 31.7233 8.22712 33.2692 8.22712 33.2692C8.22712 33.2692 8.16991 39.0688 8.16991 42.4149C8.16991 45.761 9.94349 50.3165 12.232 52.6278C4.80583 52.6891 1.23583 52.6278 1.23583 52.6278" transform="translate(76.5996 30.6841) scale(0.490075 -0.490075)" fill="#231F20"/>
<path d="M23.3197 28.5576L0 4.99487C2.99792 1.91354 7.16302 -4.5165e-06 11.7743 -4.5165e-06C20.8825 -4.5165e-06 28.2629 7.46228 28.2629 16.6658C28.2629 21.3242 26.3634 25.534 23.3197 28.5576Z" transform="translate(47.0254 26.0103) scale(0.478253 -0.478253)" fill="#0B0D10"/>
<path d="M4.77153 -1.01621e-05C1.69351 3.10561 0 7.23333 0 11.6247C0 20.6883 7.30031 28.0627 16.2712 28.0627C20.5964 28.0627 24.6814 26.363 27.7479 23.2759L27.2789 22.803C24.3381 25.7641 20.4248 27.3956 16.2712 27.3956C7.66647 27.3956 0.66364 20.3206 0.66364 11.6247C0.66364 7.41139 2.28851 3.45133 5.22922 0.472895L4.77153 -1.01621e-05" transform="translate(45.998 17.3345) scale(0.477559 -0.477559)" fill="#0B0D10"/>
<path d="M4.22227 -1.12912e-05C1.49896 2.79574 -4.46971e-05 6.48873 -4.46971e-05 10.3991C-4.46971e-05 18.5851 6.59085 25.245 14.6921 25.245C18.594 25.245 22.267 23.7084 25.0475 20.9207L24.5784 20.4467C21.9352 23.1106 18.4223 24.5767 14.6921 24.5767C6.95701 24.5767 0.663707 18.2163 0.663707 10.3991C0.663707 6.66564 2.09392 3.13798 4.69136 0.468265L4.22227 -1.12912e-05Z" transform="translate(46.7559 16.7471) scale(0.477269 -0.477269)" fill="#0B0D10"/>
<path d="M3.77603 -5.64562e-06C1.33879 2.49744 2.23485e-05 5.79731 2.23485e-05 9.29258C2.23485e-05 16.5988 5.8814 22.5429 13.113 22.5429C16.5687 22.5429 19.8183 21.1959 22.2899 18.7505L21.8208 18.2741C19.4865 20.5958 16.3856 21.8746 13.113 21.8746C6.24756 21.8746 0.663662 16.2311 0.663662 9.29258C0.663662 5.97421 1.93375 2.84084 4.24513 0.469428L3.77603 -5.64562e-06" transform="translate(47.5117 16.2158) scale(0.476967 -0.476967)" fill="#0B0D10"/>
<path d="M3.21533 7.90387e-06C1.14425 2.1818 4.46971e-05 5.04229 4.46971e-05 8.05541C4.46971e-05 14.4805 5.18345 19.7078 11.534 19.7078C14.5548 19.7078 17.404 18.5343 19.578 16.4022L19.1089 15.9224C17.0722 17.933 14.3832 19.0395 11.534 19.0395C5.53817 19.0395 0.663685 14.1117 0.663685 8.05541C0.663685 5.21572 1.73921 2.51942 3.68442 0.462497L3.21533 7.90387e-06" transform="translate(48.2676 15.623) scale(0.476675 -0.476675)" fill="#0B0D10"/>
<path d="M2.78052 6.77475e-06C0.995493 1.88465 2.23485e-05 4.35897 2.23485e-05 6.96741C2.23485e-05 12.5115 4.46258 17.0208 9.95496 17.0208C12.5638 17.0208 15.0354 15.9998 16.9119 14.1452L16.4428 13.6666C14.7036 15.3986 12.3922 16.3525 9.95496 16.3525C4.82874 16.3525 0.663662 12.1427 0.663662 6.96741C0.663662 4.5324 1.59052 2.22343 3.26112 0.463653L2.78052 6.77475e-06" transform="translate(49.0234 15.1035) scale(0.476397 -0.476397)" fill="#0B0D10"/>
<path d="M2.31133 2.25825e-06C0.823812 1.58056 4.46971e-05 3.65251 4.46971e-05 5.83314C4.46971e-05 10.4939 3.74168 14.2851 8.36443 14.2851C10.5499 14.2851 12.621 13.4307 14.2001 11.879L13.731 11.4004C12.2892 12.8283 10.3783 13.6157 8.36443 13.6157C4.10784 13.6157 0.663685 10.1239 0.663685 5.83314C0.663685 3.82594 1.41884 1.91818 2.79194 0.462492L2.31133 2.25825e-06Z" transform="translate(49.7871 14.5605) scale(0.476111 -0.476111)" fill="#0B0D10"/>
<path d="M1.8994 1.01621e-05C0.67506 1.28342 0 2.96804 0 4.744C0 8.52022 3.04367 11.5923 6.78535 11.5923C8.54749 11.5923 10.2296 10.9055 11.4997 9.65795L11.042 9.17694C9.88628 10.3019 8.37585 10.9229 6.78535 10.9229C3.40983 10.9229 0.66364 8.15023 0.66364 4.744C0.66364 3.14147 1.27009 1.62219 2.38001 0.464814L1.8994 1.01621e-05" transform="translate(50.5352 14.0405) scale(0.475823 -0.475823)" fill="#0B0D10"/>
<path d="M1.41882 -1.35495e-05C0.503423 0.979308 2.23485e-05 2.26043 2.23485e-05 3.60858C2.23485e-05 6.49914 2.32282 8.85204 5.18343 8.85204C6.49931 8.85204 7.76943 8.34792 8.73059 7.43219L8.27289 6.94311C7.43759 7.74206 6.33912 8.18142 5.18343 8.18142C2.68898 8.18142 0.663662 6.13031 0.663662 3.60858C0.663662 2.43386 1.09845 1.31577 1.89942 0.462476L1.41882 -1.35495e-05" transform="translate(51.2988 13.499) scale(0.475524 -0.475524)" fill="#0B0D10"/>
<path d="M0.915396 -1.12912e-06C0.320389 0.66714 0 1.52736 0 2.41997C0 4.42486 1.61339 6.05631 3.60437 6.05631C4.51977 6.05631 5.3894 5.70481 6.0645 5.06658L5.6068 4.57865C5.05756 5.09896 4.34813 5.3857 3.60437 5.3857C1.97954 5.3857 0.66364 4.05602 0.66364 2.41997C0.66364 1.69155 0.926816 0.990896 1.4074 0.447471L0.915396 -1.12912e-06Z" transform="translate(52.0566 12.9336) scale(0.475248 -0.475248)" fill="#0B0D10"/>
<path d="M0.286084 1.31578L2.23485e-05 13.5926C2.23485e-05 13.5926 0.091495 14.5673 0.961121 14.5673C1.83075 14.5673 2.11681 13.8851 2.21979 13.3001C2.31133 12.7162 3.2725 3.26403 13.2045 3.26403C23.1366 3.26403 22.37 10.5239 22.37 12.4236C22.37 14.3221 20.6537 18.3111 13.5021 20.0235C5.62971 21.9081 2.21979 27.7216 2.21979 32.0089C2.21979 36.2962 3.66156 40.1938 6.64804 42.2403C9.63452 44.2868 11.7629 44.8707 14.5548 44.8707C17.3582 44.8707 19.086 43.9943 19.9556 43.7018C20.8252 43.4093 22.1869 43.5422 22.4615 44.6765C22.6904 45.5725 23.8918 45.0661 23.8918 44.0671C23.8918 43.0682 23.8689 33.971 23.8689 33.971C23.8689 33.971 23.9834 32.9824 22.9421 32.9836C22.3242 32.9848 21.9352 33.3247 21.9352 34.104C21.9352 34.8833 22.6332 37.6362 21.0198 39.463C19.4064 41.2899 17.0149 42.971 14.7722 42.971C12.5295 42.971 5.9958 40.9245 5.9958 33.4704C5.9958 26.0162 12.724 26.2116 17.1637 25.1883C21.6034 24.1651 27.4962 20.6848 27.3017 12.3808C27.3017 10.2407 26.661 1.01621e-05 14.2688 1.01621e-05C9.33709 1.01621e-05 4.43967 4.67461 3.46706 4.66767C2.5059 4.66073 2.35719 2.23152 2.36863 1.15971C2.38007 -0.149139 0.354738 -0.327215 0.286084 1.31578" transform="translate(62.2363 26.2642) scale(0.486331 -0.486331)" fill="#0B0D10"/>
<path d="M7.64356 5.64562e-06H2.23485e-05V7.71895H7.64356V5.64562e-06Z" transform="translate(25.9395 8.1001) scale(0.461593 -0.461593)" fill="#0B0D10"/>
<path d="M7.64356 -2.25825e-06H2.23485e-05V7.7201H7.64356V-2.25825e-06Z" transform="translate(25.9395 22.3535) scale(0.461593 -0.461593)" fill="#0B0D10"/>
<path d="M7.64356 3.38737e-06H2.23485e-05V7.72011H7.64356V3.38737e-06Z" transform="translate(25.9395 11.6641) scale(0.461593 -0.461593)" fill="#0B0D10"/>
<path d="M7.64356 0H2.23485e-05V7.71895H7.64356V0Z" transform="translate(25.9395 18.7905) scale(0.461593 -0.461593)" fill="#0B0D10"/>
<path d="M7.60923 6.77475e-06H0V7.68774H7.60923V6.77475e-06Z" transform="translate(29.4746 25.9175) scale(0.463485 -0.463485)" fill="#0B0D10"/>
<path d="M7.55202 0H0V7.62644H7.55202V0Z" transform="translate(36.5215 25.917) scale(0.467267 -0.467267)" fill="#0B0D10"/>
<path d="M7.51769 1.12912e-05H-2.23485e-05V7.59524H7.51769V1.12912e-05Z" transform="translate(40.0508 25.9175) scale(0.469156 -0.469156)" fill="#0B0D10"/>
<path d="M7.5749 -1.12912e-06H-2.23485e-05V7.65651H7.5749V-1.12912e-06Z" transform="translate(32.9961 25.9175) scale(0.465375 -0.465375)" fill="#0B0D10"/>
<path d="M7.64356 1.12912e-06H2.23485e-05V7.72011H7.64356V1.12912e-06Z" transform="translate(25.9395 15.2275) scale(0.461593 -0.461593)" fill="#0B0D10"/>
<path d="M7.51769 6.77475e-06H-2.23485e-05V7.59523H7.51769V6.77475e-06Z" transform="translate(40.0508 8.1001) scale(0.469156 -0.469156)" fill="#0B0D10"/>
<path d="M7.51769 4.5165e-06H-2.23485e-05V7.59639H7.51769V4.5165e-06Z" transform="translate(40.0508 22.355) scale(0.469156 -0.469156)" fill="#0B0D10"/>
<path d="M7.51769 1.35495e-05H-2.23485e-05V7.59524H7.51769V1.35495e-05Z" transform="translate(40.0508 11.6641) scale(0.469156 -0.469156)" fill="#0B0D10"/>
<path d="M7.51769 -1.12912e-06H-2.23485e-05V7.59407H7.51769V-1.12912e-06Z" transform="translate(40.0508 18.791) scale(0.469156 -0.469156)" fill="#0B0D10"/>
<path d="M7.51769 -9.03299e-06H-2.23485e-05V7.5964H7.51769V-9.03299e-06Z" transform="translate(40.0508 15.2275) scale(0.469156 -0.469156)" fill="#0B0D10"/>
<path d="M16.3627 38.7959C16.5115 39.1694 15.6762 37.2489 15.4359 37.1552C15.2986 36.7818 14.8408 36.8269 14.7951 36.0776C14.7493 35.2822 13.8683 33.8762 13.4907 33.0796C13.3534 33.0796 12.5638 32.3777 12.5638 31.8147C12.5638 31.4863 11.4997 30.174 11.4997 29.8005C11.3166 29.6132 11.1336 29.1912 10.8017 28.864C10.6644 28.7218 9.69178 26.3792 9.46293 26.0035C8.49032 25.2542 9.13108 25.1606 8.06693 24.083C7.64356 23.661 6.63658 21.2248 5.78984 20.1472C5.42368 19.6327 4.87453 19.398 4.45116 18.8834C4.31385 18.7412 4.35957 18.3204 4.1765 18.0857C3.66158 17.3838 3.3412 17.1006 2.46013 17.1006C1.94522 17.1006 1.01842 17.57 1.01842 18.1793C1.01842 18.8834 1.39602 19.3506 1.53333 19.9611L1.35019 20.1472C1.35019 19.961 1.8537 20.945 2.08255 21.3185C2.82631 23.1938 2.7347 22.5371 4.58838 26.0035C4.95454 26.7539 5.74409 28.864 6.21323 29.4236C6.35054 29.5646 7.23165 30.9706 7.23165 31.5337V31.8147C8.20426 32.2829 10.0579 37.1552 10.8932 38.6086C10.8932 38.937 11.5454 40.1082 11.82 40.2019C12.0603 40.3406 12.0603 41.7952 12.4265 41.7952C12.4265 41.7952 12.4265 41.7952 12.4723 41.8403C12.4723 41.8877 12.4723 41.8876 12.5181 41.9362C13.5822 43.8567 14.3717 45.8234 15.2528 47.8376C15.4358 48.2619 15.9966 48.588 16.0423 49.1048C16.0881 49.6193 16.1338 49.9003 16.3169 50.3211C16.3627 50.4634 16.4657 50.2275 16.5114 50.5559C16.603 51.0253 18.3193 54.4917 18.3193 55.1021V55.2409C18.4566 55.3819 18.8686 56.1797 18.8686 56.3185V56.8816C18.8686 57.1163 18.8686 57.3024 18.9144 57.4446C19.7039 57.4446 20.4934 64.0502 20.4934 65.0803C20.4934 66.3927 20.173 67.7986 19.9442 69.1109C19.7954 69.8602 18.0333 71.8755 17.5756 71.9691C17.2437 72.109 16.7861 72.5311 16.6488 72.8594C15.5732 72.7184 14.4632 72.8594 13.3991 72.3437C12.3807 71.8269 11.3166 72.0616 10.4355 71.1725C10.2868 71.0314 10.344 70.5632 10.1152 70.5632C10.0122 70.5632 9.92058 70.6106 9.87481 70.6557C9.82904 70.6557 8.53609 69.156 8.49032 69.1109C7.56348 68.127 6.57945 67.1904 6.16753 65.8781C5.42377 65.3625 4.49686 63.8628 4.26801 63.02C3.93618 61.9424 3.38701 61.0509 3.2497 59.9282C3.2497 60.067 2.78049 58.7084 2.55164 58.7084C2.59741 58.4748 2.64316 58.2875 2.64316 58.1465C2.64316 57.5834 2.08253 57.0226 1.94522 56.4595C1.71637 55.4305 1.5791 52.6637 1.24727 52.3365C1.24727 52.1966 1.35019 52.0555 1.35019 51.8682C1.35019 51.7271 1.06413 51.4924 1.06413 51.3062C1.06413 51.0715 1.20146 50.8842 1.20146 50.6495C1.20146 50.4634 1.01842 50.4634 1.01842 50.3211C1.01842 50.2275 1.0641 50.135 1.15564 50.0413C1.15564 49.713 0.926794 49.6193 0.926794 49.4783C0.926794 49.3372 1.06413 49.1973 1.06413 48.9637C1.06413 48.8215 0.881091 48.6828 0.881091 48.5417C0.881091 48.307 0.972608 48.1197 0.972608 47.885C0.972608 47.3705 1.06419 45.45 1.76218 45.45C2.23132 45.45 2.31138 46.6212 3.14667 46.6212C3.38697 46.4802 3.38692 46.338 3.38692 46.1056C3.38692 45.7298 3.10086 45.3563 3.10086 44.9806C3.10086 44.6522 3.2497 44.3238 3.2497 43.9966L2.73479 44.2302C2.73479 43.8567 2.46015 43.4809 2.08255 43.4809C1.76216 43.4809 1.71635 44.1377 1.57904 44.1377C1.53327 44.1377 1.48754 44.0891 1.396 43.9966C1.20148 44.1377 1.0641 44.606 0.926794 44.7933C0.926794 44.8395 0.881091 44.8869 0.881091 44.9343L0.697945 45.2153C0.560635 45.5425 0.320366 45.8708 0.320366 46.1992C0.320366 46.338 0.411884 46.4802 0.411884 46.6212C0.411884 47.4167 0 48.4007 0 49.3372C0 49.6656 0.274664 49.7604 0.274664 49.9003C0.274664 50.2275 0.228849 50.4148 0.228849 50.7432C0.366158 53.8835 1.39596 56.929 2.26558 59.9282L2.46013 60.1155L2.55164 61.0509L2.59746 61.2382C2.96362 61.2868 2.68895 61.8949 3.00934 62.0811H3.2497C3.47855 62.5979 3.57007 63.1598 3.79892 63.6767L3.7531 63.9565L3.84462 64.0976C4.4053 64.0976 4.26801 65.3625 5.24062 66.3464C5.37793 66.4863 5.56103 66.4401 5.6068 66.4863C5.65257 66.4863 6.21325 67.705 6.35056 67.8923C6.68239 68.3131 7.14007 68.5479 7.4719 68.9699C7.64354 69.2982 7.59777 69.6255 7.9296 69.9538C8.43307 70.5169 9.13105 70.7042 9.64597 71.2187C9.78327 71.3598 9.73755 71.6407 9.92063 71.8269C10.1152 72.0165 10.344 71.8755 10.5271 72.0165C10.8474 72.2027 10.9848 72.5773 11.1793 72.7183C11.4997 72.8594 11.6827 72.7184 12.0146 72.8594C13.4449 73.3739 14.8866 73.4676 16.3169 73.7023C16.3169 73.5612 16.3628 73.515 16.4657 73.515C16.5115 73.6086 16.5573 73.6549 16.6946 73.6549C17.015 73.6549 17.4269 73.2803 17.6672 73.1404C17.9876 72.9982 18.3194 73.0456 18.6398 72.9057C18.7771 72.7658 18.8686 72.4837 19.0059 72.4837C19.8869 72.4837 20.3104 71.406 21.7064 70.6557L21.6491 70.4233C21.7979 70.1885 22.3929 69.8602 22.5759 69.533C22.8162 69.1109 22.8163 69.156 23.1367 68.6415C23.457 68.127 23.2282 67.5177 23.7889 66.9546C23.972 66.0643 24.0178 65.1278 24.0178 64.2375C24.0178 62.2222 23.7889 60.3017 23.457 58.2875C23.3197 57.5834 23.0451 56.7879 23.0451 56.0838L22.862 55.8514C22.9078 55.6629 22.9993 55.4756 22.9993 55.2883C22.3929 54.6801 22.3929 54.3517 22.2556 54.117L22.4386 53.8349L22.0725 53.0394C22.0725 52.8984 22.2098 52.8533 22.3471 52.8533C22.164 52.3365 21.6491 52.5249 21.466 51.9144C21.2371 51.1652 20.3561 48.7764 19.9785 48.2619C20.0357 48.4007 20.4934 48.6828 20.6307 49.0562C20.768 49.6656 22.1641 50.6044 22.1641 51.3987C22.3014 51.7757 23.457 52.8984 23.457 53.0857C23.6058 53.7887 24.6242 54.5391 25.1734 54.9599C25.5052 55.1958 25.8714 55.8976 26.2032 56.226C26.3405 56.3659 28.0569 57.9592 28.0569 58.2875C28.0569 58.3338 28.0111 58.4286 27.9539 58.5673C29.0295 59.083 31.0663 61.4267 31.1121 61.4267C31.2494 61.8487 31.5354 61.6602 31.8558 61.8487C31.9931 61.8487 32.2677 62.8789 32.8741 62.8789C33.2861 62.8789 34.0756 64.0501 34.4532 64.2849C35.5631 65.1751 38.2521 67.0494 38.8585 67.0494C38.9958 67.0494 39.0874 67.0008 39.2247 67.0008C39.2247 67.3766 41.0784 67.9848 40.9869 67.9848C41.1242 67.9848 41.1699 67.9397 41.3187 67.9397C41.3187 68.3617 41.639 67.8923 41.7763 68.4068L42.234 68.3617C42.234 68.4068 44.9345 68.9699 45.1176 68.9699C45.3006 68.9699 45.438 68.9236 45.6211 68.9236C45.7698 68.9236 45.9529 69.0173 46.136 69.0173C47.9439 69.0173 49.5687 68.1744 50.4498 67.6113C50.6787 67.424 50.6329 67.0968 50.8617 66.9072C51.0105 66.7684 51.5139 66.8621 51.5139 66.5337C51.4682 66.3926 51.3766 66.3464 51.3766 66.2054C51.4224 66.1579 51.6055 66.1579 51.6513 66.1117C51.6513 65.9718 51.6055 65.8781 51.6055 65.7359C51.7885 65.5498 52.2119 64.9404 52.2119 64.6121C52.2119 64.4722 52.1662 64.4722 52.1662 64.3311L52.395 64.2849C52.395 63.5356 52.1204 60.0207 51.5139 59.6461C51.2393 59.2715 50.5414 57.5383 50.4498 57.4446C50.3125 57.3024 50.221 57.4897 50.221 57.2573C49.6145 55.9913 49.008 55.4756 48.413 54.4916C48.1727 54.117 48.1727 53.5551 47.8524 53.1805C47.715 52.992 47.4862 52.9458 47.3374 52.8047C46.9713 51.26 46.2733 51.6335 46.0445 50.4148C44.7972 49.7604 43.5385 47.6503 43.2639 47.6503H43.2182C43.5843 47.6503 42.4286 47.0883 41.9137 46.7137C41.5933 46.3865 39.6481 44.6522 39.3162 44.6522C38.9043 44.6522 38.4809 43.2936 38.3436 42.9178L39.9228 42.8728C40.0601 42.0299 44.7057 42.9178 44.7057 39.9198C44.7057 39.359 44.6485 38.7485 44.3281 38.2328C44.2823 38.0929 44.0534 38.2328 43.9161 38.0929C43.7216 37.9045 43.8132 37.531 43.6759 37.2963C42.9435 36.3598 42.1082 35.4695 41.9595 34.3919C41.17 34.1109 41.3187 33.127 40.8037 32.8448C40.5749 32.7049 40.3805 32.3777 40.2088 32.1418L38.3436 29.6583C38.2978 29.5172 38.2063 29.5172 38.1606 29.4721C37.6914 28.9091 38.3894 28.5807 37.188 28.0662C37.188 27.9251 37.2338 27.9251 37.2338 27.8789C37.2338 27.7378 36.0323 26.2382 35.1054 25.0681L34.8194 24.5524C34.4074 23.8032 33.1945 22.3486 31.1578 18.6487C31.0205 18.3204 31.0663 17.9469 30.8832 17.7122C30.7459 17.57 30.5971 17.6636 30.4598 17.5226C29.7275 16.6797 29.0752 14.3372 28.4688 12.8375C28.0111 11.7599 26.8898 7.91783 26.8898 6.84023C26.8898 6.32571 26.9355 6.32571 27.2673 5.99734C27.2673 5.76262 26.9356 5.5279 26.9356 5.20184C26.8898 3.74847 27.2216 3.14031 28.5146 2.06271C29.0753 1.54703 28.9837 1.125 29.8648 1.125C30.1852 1.125 30.1394 0.842886 30.7001 0.842886H31.0663C33.2403 0.842886 35.2428 1.73319 37.2338 2.52983C37.4626 2.67088 37.5084 2.90444 37.8402 2.90444C37.886 2.90444 38.0233 2.85703 38.2064 2.81194L41.4103 4.77983C41.5934 4.91973 41.8679 4.82607 42.1082 4.96713C42.4286 5.10703 42.4744 5.4828 42.7033 5.71751C43.8589 5.85626 45.4838 7.82531 46.136 7.82531C46.6509 7.82531 48.0812 9.32377 48.9165 9.7932C50.9532 11.2928 52.578 12.3704 53.9283 14.4308C54.2944 14.8517 54.5233 15.0875 54.8552 15.6021C55.1298 16.0229 55.3128 15.5558 55.4616 16.6346C55.4616 17.2428 56.5257 17.5226 56.5257 18.0406C56.5257 18.3678 57.0749 19.0222 57.0749 19.6327C57.0749 19.9125 56.9835 20.9912 56.5715 20.9912C56.1482 20.9912 55.5989 20.1958 54.9009 20.1958C54.7636 20.1958 54.8093 20.2408 54.672 20.2408C54.8093 20.8502 55.6447 21.8341 56.3427 21.8341C56.6631 21.8341 57.5898 21.5058 57.5898 21.0849C57.5898 20.8976 57.4525 20.7565 57.4525 20.5692C57.4525 20.5218 57.4526 20.4755 57.4983 20.4281H57.7272C57.7272 19.9125 57.7272 19.3506 57.5898 18.8349C57.361 17.992 55.9193 16.4924 55.9193 15.9304C55.9193 15.6021 55.4616 15.6495 55.4616 15.276V15.1801C55.2213 14.9939 54.9008 14.713 54.7635 14.3846C54.5232 13.7764 53.5507 13.6353 53.4133 12.8849C53.276 12.5103 52.7611 12.4641 52.5323 12.1357C52.3949 11.9947 52.4865 11.7148 52.3492 11.5252C51.7428 10.9645 50.9532 10.6361 50.3582 10.1216C50.0378 9.88687 49.9806 9.51109 49.6602 9.37235C49.5229 9.23129 49.2483 9.3238 49.0995 9.18274C48.6876 8.95034 48.3673 8.62195 47.9897 8.29358C47.5778 7.96637 47.017 7.77908 46.6966 7.3559C46.4563 7.216 46.6509 6.88878 46.136 6.88878C45.5753 6.88878 45.8156 6.6055 45.6211 6.41819C45.3922 6.3731 45.2091 6.46675 44.9802 6.32569C44.8429 6.18463 44.8773 6.09098 44.7514 5.95107C44.328 5.62386 42.8519 4.87348 42.234 4.54627C42.154 3.98319 40.0143 3.23279 39.8769 3.09173C39.8312 3.04664 39.7854 2.81194 39.6481 2.67088C39.0874 2.52982 38.4809 2.43618 38.1148 2.01415L37.7944 2.06271C37.2337 1.49963 35.4716 1.2649 34.6363 0.891438C34.4532 0.891438 34.3617 0.563089 34.1328 0.563089C33.9841 0.563089 33.9384 0.608169 33.801 0.608169C33.7095 0.514515 31.9016 -5.64562e-06 31.627 -5.64562e-06C29.9106 -5.64562e-06 29.3041 0.093653 28.1026 1.21866C27.5877 1.64068 26.4779 2.29625 26.4779 2.3425L26.5694 2.62462C26.1003 3.09173 25.551 4.63878 24.9445 4.63878C25.0361 4.73243 25.0819 4.87348 25.0819 5.06079C25.0819 5.38915 24.9445 5.57646 24.8072 5.81002C24.8072 5.95108 24.853 6.091 24.853 6.23206C24.7157 6.23206 24.6699 6.27944 24.6699 6.32569C24.6699 6.46675 24.7157 6.60551 24.853 6.74657C24.853 7.12234 24.6242 7.49696 24.6242 7.87273C24.6242 9.5111 25.1391 10.8708 25.3679 12.5103L25.2192 12.745C25.963 13.1208 26.0545 15.3697 26.0545 15.3697L26.2032 15.6021C26.4321 15.9304 27.1758 17.0554 27.1758 17.9469C27.1758 18.133 27.13 18.2741 27.13 18.4614C27.3589 18.6002 27.6335 18.8349 27.8166 19.0222V19.398L28.0111 19.3506V19.539L28.4688 20.5218C28.6976 21.0386 29.0295 21.5543 29.2584 21.8815C29.5788 22.2099 29.7733 22.4446 29.9106 22.8666C29.9106 22.9591 31.9016 26.1931 32.0389 26.3318C32.0846 26.3792 32.5995 26.7076 32.7368 26.8949C32.9657 27.8789 33.5264 28.1136 33.6637 28.864C33.8468 29.0501 34.1328 29.1912 34.2701 29.4236C34.4075 29.5646 35.4258 31.1579 35.6546 31.4863C35.8377 31.721 36.2153 31.8146 36.3984 32.0493C36.9591 32.7512 37.7944 34.1109 38.8585 35.2822C39.5565 36.1713 40.1516 37.1552 40.8954 37.953C41.0784 38.1877 41.5933 38.2814 41.5933 38.6549V38.937C42.154 39.1243 42.7033 40.0608 42.7033 40.669C42.7033 41.6078 41.6848 41.3257 41.0326 41.6079C40.9868 41.5605 40.8953 41.5604 40.8037 41.5604C40.4834 41.5604 40.5292 41.7952 40.3805 41.7952C40.2088 41.7952 40.0142 41.7015 39.8311 41.7015C39.4192 41.7015 38.9959 41.7466 38.584 41.7466C38.2064 41.7466 37.7944 41.4668 37.6571 41.4668C37.5083 41.4668 37.3253 41.5604 37.188 41.5604C36.8218 41.5604 36.7189 41.1384 36.49 41.1384H35.5631C33.8468 41.1384 34.6363 39.7799 33.4806 39.7799C32.1761 39.7799 30.9289 40.3892 30.9289 41.8877C30.9289 44.3712 34.9109 45.2627 34.9109 45.8708V46.0582C34.9681 46.1056 35.0482 46.1518 35.1969 46.1518C36.4442 47.4167 37.7486 47.9324 38.9959 49.1973C39.5108 49.713 40.2088 50.0864 40.7122 50.6495C41.2157 51.3063 42.7033 52.7122 42.7033 53.1331C42.7033 53.2741 42.8863 53.4141 43.2182 53.8349C43.3555 53.976 43.7216 53.8835 43.7216 54.117C43.6758 54.1633 43.6759 54.2107 43.6759 54.3044C43.6759 54.8674 44.9802 55.4756 44.9802 55.9913C44.9802 56.3659 45.9071 57.2099 46.2275 57.5834C47.3374 59.083 49.0995 61.1446 49.0995 62.4095C49.0995 62.6442 49.2483 62.6916 49.3856 62.8315C49.3856 63.02 49.2025 63.1599 49.2025 63.3934C49.5687 63.5356 49.7976 65.2688 49.7976 65.6423C49.7976 66.5337 49.1453 67.1905 48.4588 67.5639L47.9897 67.6113L47.8065 67.7535C47.6692 67.7535 47.532 67.6576 47.3374 67.6576C47.2001 67.9848 46.319 68.268 45.9987 68.268C45.5295 68.268 44.1449 68.3131 44.0076 67.705C43.4012 67.5639 42.4286 67.6576 41.9137 67.4703C41.4102 67.2829 40.8954 66.8135 40.3805 66.8135C39.877 66.8135 39.9684 66.4863 39.6023 66.3464C39.362 66.2053 39.1332 66.299 38.9043 66.1579C38.2063 65.9255 38.1606 65.4087 37.2795 65.4087V65.2214C37.2795 64.893 36.7188 64.9404 36.5357 64.7994C36.4442 64.7069 35.3801 63.0662 34.7278 63.0662C34.6821 63.0662 34.5447 63.1136 34.3617 63.1599C33.5721 62.3644 33.0572 61.8487 31.9931 61.3319C31.6269 61.1445 31.5354 60.4427 31.2036 60.067C30.8832 59.6935 30.3682 59.5999 30.0478 59.2715L27.5877 56.7879C27.4046 56.5532 27.4505 56.3185 27.3132 56.1312C27.1758 55.9913 26.9356 55.8976 26.7982 55.7577C26.6152 55.523 26.7067 55.1958 26.5694 55.0536C26.2032 54.5391 24.8988 54.4454 24.7615 52.9458C24.2466 52.5249 23.56 52.3365 23.4112 51.6335L23.3655 51.3537C23.2282 50.3686 21.9809 50.4148 21.7521 49.1973C21.6033 48.4943 21.1914 47.885 20.4934 47.6988C20.0357 47.6052 20.4476 46.7137 19.9785 46.6212C18.777 46.2455 18.8228 44.6059 18.4567 43.6682C18.3193 43.5295 16.8776 40.5753 16.8776 39.9198L16.3627 38.7959" transform="translate(0 33.9053) scale(0.460031 -0.460031)" fill="#0B0D10"/>
<path d="M19.7039 21.8018L17.5985 21.8098L19.784 30.1589L19.7039 21.8018ZM11.6141 42.8982L4.46971e-05 0.046241L11.9002 3.38737e-06L14.7264 10.8188L19.5894 10.7991L19.4865 0.141059L32.9085 0.0982654L33.0801 42.8265L11.6141 42.8982" transform="translate(83.6953 25.8628) scale(0.499525 -0.499525)" fill="#0B0D10"/>
</svg>
