<svg width="66" height="24" viewBox="0 0 66 24" fill="none" xmlns="http://www.w3.org/2000/svg">
<path fill-rule="evenodd" clip-rule="evenodd" d="M60.1428 18.9183C59.1693 21.6244 58.1447 22.9771 55.7116 22.9771H54.4052V21.2408H55.2759C57.0431 21.2408 57.8378 19.9649 58.4006 17.9484L53.6366 5.10632H55.9416L59.4511 15.037L62.8577 5.10632H65.1118L60.1428 18.9183ZM49.1795 16.4664H49.0774C48.1298 17.6415 46.8744 18.0751 45.5679 18.0751C43.5698 18.0751 41.9054 17.2078 41.1108 15.1137C40.727 14.093 40.676 12.9188 40.676 11.4885C40.676 10.0592 40.727 8.88498 41.1108 7.86336C41.9054 5.77015 43.5698 4.9011 45.5679 4.9011C46.9003 4.9011 48.1298 5.3615 49.0774 6.51071H49.1795V0H51.3315V17.8708H49.1795V16.4664ZM49.1795 9.95656C49.1795 8.0418 47.7459 6.6383 46.0037 6.6383C44.7223 6.6383 43.7497 7.14867 43.2369 8.32286C42.9041 9.08841 42.879 9.95656 42.879 11.4885C42.879 13.0205 42.9041 13.8887 43.2369 14.6542C43.7497 15.8284 44.7223 16.3397 46.0037 16.3397C47.7459 16.3397 49.1795 14.9353 49.1795 13.0205V9.95656ZM35.2453 16.4664H35.1433C34.2717 17.463 33.1192 18.0751 31.6347 18.0751C29.0719 18.0751 27.1516 16.7474 27.1516 13.2766V5.10632H29.3028V13.0205C29.3028 15.5732 30.6092 16.3397 32.1465 16.3397C34.0417 16.3397 35.2453 14.6542 35.2453 13.0205V5.10632H37.3973V17.8708H35.2453V16.4664ZM19.8767 14.7051V6.84173H17.8795V5.10632H19.8767V1.27591H22.0287V5.10632H24.7436V6.84173H22.0287V14.4749C22.0287 15.5224 22.4126 16.3397 23.4372 16.3397H24.7436V18.0751H22.8744C20.9022 18.0751 19.8767 16.8509 19.8767 14.7051ZM11.2712 18.101C8.47846 18.101 6.86598 16.9527 6.04542 15.4207L7.78764 14.5008C8.47845 15.8284 9.83679 16.3656 11.3741 16.3656C12.8335 16.3656 14.1391 15.5991 14.1391 14.3223C14.1391 13.0455 13.4223 12.5102 11.8859 12.3817L10.3737 12.2541C7.68474 12.0239 6.50626 10.6463 6.50626 8.60302C6.50626 6.17701 8.70931 4.9011 11.2452 4.9011C13.8841 4.9011 15.3185 6.20378 15.9332 7.40385L14.2169 8.34874C13.8062 7.53144 12.9606 6.6383 11.1683 6.6383C9.63188 6.6383 8.6583 7.30124 8.6583 8.55217C8.6583 9.54791 9.06814 10.2385 10.6054 10.3652L12.1159 10.4928C14.5749 10.723 16.2912 11.9489 16.2912 14.2456C16.2912 16.6716 13.9091 18.101 11.2712 18.101ZM0 15.2672H2.51087V17.8717H0V15.2672Z" transform="translate(0.888672 0.307617)" fill="black"/>
</svg>
